<svg xmlns="http://www.w3.org/2000/svg" xmlns:xlink="http://www.w3.org/1999/xlink" width="500" zoomAndPan="magnify" viewBox="0 0 375 374.999991" height="500" preserveAspectRatio="xMidYMid meet" version="1.0"><defs><clipPath id="0009a85227"><path d="M 50.949219 57.09375 L 323.949219 57.09375 L 323.949219 318 L 50.949219 318 Z M 50.949219 57.09375 " clip-rule="nonzero"/></clipPath><clipPath id="68be8bfd20"><path d="M 50.949219 57.09375 L 141 57.09375 L 141 318 L 50.949219 318 Z M 50.949219 57.09375 " clip-rule="nonzero"/></clipPath><clipPath id="4099803f79"><path d="M 50.949219 57.09375 L 323.949219 57.09375 L 323.949219 318 L 50.949219 318 Z M 50.949219 57.09375 " clip-rule="nonzero"/></clipPath><clipPath id="c5703d9961"><path d="M 234 57.09375 L 323.949219 57.09375 L 323.949219 318 L 234 318 Z M 234 57.09375 " clip-rule="nonzero"/></clipPath></defs><g clip-path="url(#0009a85227)"><path fill="#1b70bb" d="M 50.949219 57.207031 L 212.679688 317.996094 L 323.933594 317.996094 Z M 50.949219 57.207031 " fill-opacity="1" fill-rule="evenodd"/></g><g clip-path="url(#68be8bfd20)"><path fill="#145593" d="M 140.519531 201.636719 L 50.949219 57.207031 L 50.949219 317.996094 Z M 140.519531 201.636719 " fill-opacity="1" fill-rule="evenodd"/></g><g clip-path="url(#4099803f79)"><path fill="#2491eb" d="M 323.933594 317.996094 L 162.199219 57.207031 L 50.949219 57.207031 Z M 323.933594 317.996094 " fill-opacity="1" fill-rule="evenodd"/></g><g clip-path="url(#c5703d9961)"><path fill="#6db7f2" d="M 234.363281 173.566406 L 323.933594 317.996094 L 323.933594 57.207031 Z M 234.363281 173.566406 " fill-opacity="1" fill-rule="evenodd"/></g></svg>