<svg id="visual" viewBox="0 0 1920 1080" width="1920" height="1080" xmlns="http://www.w3.org/2000/svg" xmlns:xlink="http://www.w3.org/1999/xlink" version="1.1"><rect x="0" y="0" width="1920" height="1080" fill="#1F2223"></rect><path d="M0 727L274 636L549 781L823 730L1097 769L1371 798L1646 732L1920 794L1920 1081L1646 1081L1371 1081L1097 1081L823 1081L549 1081L274 1081L0 1081Z" fill="#f5730a"></path><path d="M0 807L274 741L549 714L823 780L1097 719L1371 738L1646 753L1920 774L1920 1081L1646 1081L1371 1081L1097 1081L823 1081L549 1081L274 1081L0 1081Z" fill="#da5b09"></path><path d="M0 838L274 915L549 890L823 863L1097 836L1371 920L1646 822L1920 889L1920 1081L1646 1081L1371 1081L1097 1081L823 1081L549 1081L274 1081L0 1081Z" fill="#be4407"></path><path d="M0 873L274 966L549 952L823 876L1097 936L1371 962L1646 867L1920 928L1920 1081L1646 1081L1371 1081L1097 1081L823 1081L549 1081L274 1081L0 1081Z" fill="#a32d04"></path><path d="M0 970L274 945L549 979L823 959L1097 997L1371 949L1646 955L1920 952L1920 1081L1646 1081L1371 1081L1097 1081L823 1081L549 1081L274 1081L0 1081Z" fill="#871400"></path></svg>