<svg id="visual" viewBox="0 0 1920 1080" width="1920" height="1080" xmlns="http://www.w3.org/2000/svg" xmlns:xlink="http://www.w3.org/1999/xlink" version="1.1"><path d="M0 23L128 77L256 23L384 141L512 66L640 33L768 98L896 55L1024 44L1152 109L1280 109L1408 33L1536 55L1664 44L1792 44L1920 120L1920 0L1792 0L1664 0L1536 0L1408 0L1280 0L1152 0L1024 0L896 0L768 0L640 0L512 0L384 0L256 0L128 0L0 0Z" fill="#ffffff"></path><path d="M0 152L128 206L256 120L384 239L512 185L640 141L768 195L896 87L1024 131L1152 141L1280 163L1408 195L1536 120L1664 87L1792 141L1920 249L1920 118L1792 42L1664 42L1536 53L1408 31L1280 107L1152 107L1024 42L896 53L768 96L640 31L512 64L384 139L256 21L128 75L0 21Z" fill="#d0d2d5"></path><path d="M0 185L128 239L256 271L384 390L512 228L640 195L768 228L896 260L1024 282L1152 314L1280 325L1408 336L1536 282L1664 152L1792 271L1920 336L1920 247L1792 139L1664 85L1536 118L1408 193L1280 161L1152 139L1024 129L896 85L768 193L640 139L512 183L384 237L256 118L128 204L0 150Z" fill="#a2a7ad"></path><path d="M0 530L128 336L256 498L384 638L512 357L640 336L768 465L896 444L1024 541L1152 530L1280 465L1408 725L1536 368L1664 336L1792 552L1920 649L1920 334L1792 269L1664 150L1536 280L1408 334L1280 323L1152 312L1024 280L896 258L768 226L640 193L512 226L384 388L256 269L128 237L0 183Z" fill="#777e87"></path><path d="M0 768L128 465L256 595L384 714L512 422L640 627L768 627L896 541L1024 768L1152 746L1280 617L1408 822L1536 433L1664 498L1792 833L1920 800L1920 647L1792 550L1664 334L1536 366L1408 723L1280 463L1152 528L1024 539L896 442L768 463L640 334L512 355L384 636L256 496L128 334L0 528Z" fill="#4e5762"></path><path d="M0 984L128 1049L256 908L384 941L512 1049L640 1038L768 962L896 908L1024 1005L1152 876L1280 941L1408 995L1536 908L1664 876L1792 984L1920 887L1920 798L1792 831L1664 496L1536 431L1408 820L1280 615L1152 744L1024 766L896 539L768 625L640 625L512 420L384 712L256 593L128 463L0 766Z" fill="#273340"></path><path d="M0 1081L128 1081L256 1081L384 1081L512 1081L640 1081L768 1081L896 1081L1024 1081L1152 1081L1280 1081L1408 1081L1536 1081L1664 1081L1792 1081L1920 1081L1920 885L1792 982L1664 874L1536 906L1408 993L1280 939L1152 874L1024 1003L896 906L768 960L640 1036L512 1047L384 939L256 906L128 1047L0 982Z" fill="#001220"></path></svg>