<svg id="visual" viewBox="0 0 1920 1080" width="1920" height="1080" xmlns="http://www.w3.org/2000/svg" xmlns:xlink="http://www.w3.org/1999/xlink" version="1.1"><path d="M0 379L96 444L192 336L288 314L384 465L480 498L576 455L672 379L768 433L864 379L960 401L1056 401L1152 368L1248 422L1344 487L1440 476L1536 455L1632 433L1728 433L1824 422L1920 379L1920 0L1824 0L1728 0L1632 0L1536 0L1440 0L1344 0L1248 0L1152 0L1056 0L960 0L864 0L768 0L672 0L576 0L480 0L384 0L288 0L192 0L96 0L0 0Z" fill="#ffffff"></path><path d="M0 595L96 725L192 595L288 606L384 735L480 725L576 671L672 638L768 649L864 649L960 660L1056 627L1152 606L1248 735L1344 735L1440 735L1536 757L1632 649L1728 746L1824 703L1920 606L1920 377L1824 420L1728 431L1632 431L1536 453L1440 474L1344 485L1248 420L1152 366L1056 399L960 399L864 377L768 431L672 377L576 453L480 496L384 463L288 312L192 334L96 442L0 377Z" fill="#868888"></path><path d="M0 1081L96 1081L192 1081L288 1081L384 1081L480 1081L576 1081L672 1081L768 1081L864 1081L960 1081L1056 1081L1152 1081L1248 1081L1344 1081L1440 1081L1536 1081L1632 1081L1728 1081L1824 1081L1920 1081L1920 604L1824 701L1728 744L1632 647L1536 755L1440 733L1344 733L1248 733L1152 604L1056 625L960 658L864 647L768 647L672 636L576 669L480 723L384 733L288 604L192 593L96 723L0 593Z" fill="#1f2223"></path></svg>