<svg id="ePlw2QJK4sB1" xmlns="http://www.w3.org/2000/svg" xmlns:xlink="http://www.w3.org/1999/xlink" viewBox="0 0 1920 1080" shape-rendering="geometricPrecision" text-rendering="geometricPrecision" width="1920" height="1080"><path d="M0,296l96-50h96l96-7l96,43l96-15h96l96,58l96-22l96-79l96,36l96,65l96-58l96-50l96,94l96-8l96-7l96-29l96,22l96-22l96-28v-239h-96-96-96-96-96-96-96-96-96-96-96-96-96-96-96-96-96-96-96-96Z" fill="#fff"/><path d="M0,455l96-29l96,29l96-15l96,29l96,7l96-7l96,43l96-14l96-87l96,51l96,21l96-50l96-14l96,86l96-43l96-7l96-44l96,87l96-79l96-8v-174l-96,28-96,22-96-22-96,29-96,7-96,8-96-94-96,50-96,58-96-65-96-36-96,79-96,22-96-58h-96l-96,15-96-43-96,7h-96L0,294Z" transform="translate(0-180)" fill="#868888"/><path d="M0,721h96h96h96h96h96h96h96h96h96h96h96h96h96h96h96h96h96h96h96h96v-312l-96,8-96,79-96-87-96,44-96,7-96,43-96-86-96,14-96,50-96-21-96-51-96,87-96,14-96-43-96,7-96-7-96-29-96,15-96-29L0,453Z" transform="matrix(1 0 0 1.368602 0-421.26013)" fill="#1f2223"/><path d="M0,721h96h96h96h96h96h96h96h96h96h96h96h96h96h96h96h96h96h96h96h96v-312l-96,8-96,79-96-87-96,44-96,7-96,43-96-86-96,14-96,50-96-21-96-51-96,87-96,14-96-43-96,7-96-7-96-29-96,15-96-29L0,453Z" transform="matrix(1 0 0 2.712127 0-861.665726)" fill="#1f2223"/></svg>
